PathFileType	4	(X/Y/Z)	./resultDataOpenSim/trcMotMarkerGrf/sub06/qtm-03-05.trc
DataRate	CameraRate	NumFrames	NumMarkers	Units	OrigDataRate	OrigDataStartFrame	OrigNumFrames
250.000000	250.000000	6	24	m	250.000000	324	518
Frame#	Time	L.Toe.Tip			R.Toe.Tip			L.Ankle.Lat			R.Ankle.Lat			L.Ankle.Med			R.Ankle.Med			L.Heel			R.Heel			L.Knee.Lat			R.Knee.Lat			L.Knee.Med			R.Knee.Med			L.Thigh.Upper			R.Thigh.Upper			L.ASIS			R.ASIS			V.Sacral			L.Acromium			R.Acromium			C7			L.Elbow			R.Elbow			L.Wrist.Lat			R.Wrist.Lat
		X1	Y1	Z1	X2	Y2	Z2	X3	Y3	Z3	X4	Y4	Z4	X5	Y5	Z5	X6	Y6	Z6	X7	Y7	Z7	X8	Y8	Z8	X9	Y9	Z9	X10	Y10	Z10	X11	Y11	Z11	X12	Y12	Z12	X13	Y13	Z13	X14	Y14	Z14	X15	Y15	Z15	X16	Y16	Z16	X17	Y17	Z17	X18	Y18	Z18	X19	Y19	Z19	X20	Y20	Z20	X21	Y21	Z21	X22	Y22	Z22	X23	Y23	Z23	X24	Y24	Z24

324	1.292	0.48974678	0.10464195	-0.015476157	0.91026983	0.036901254	0.18065199	0.48693704	0.23531124	-0.039581678	0.77353402	0.061420135	0.19812666	0.50814122	0.23807392	0.042538644	0.79746166	0.079931897	0.11113608	0.43836832	0.2890541	0.01316122	0.72053269	0.037900754	0.13657018	0.82444919	0.39450728	-0.068477573	0.86898752	0.4382442	0.22708134	0.82736909	0.3804561	0.054865724	0.83488872	0.42834908	0.10436936	0.70592434	0.77319257	-0.058715572	0.7490783	0.79780984	0.28104252	0.78752905	0.82815898	-0.029127769	0.8269365	0.84952182	0.21390053	0.62157859	0.909311	0.1236746	0.72469828	1.3262029	-0.070789151	0.74811452	1.3000006	0.29003188	0.65855544	1.3479831	0.1150624	0.7054548	1.0040239	-0.13652196	0.69622389	0.98749872	0.35978084	0.89103802	0.84024169	-0.13486445	0.87249746	0.81984696	0.39490835
325	1.296	0.50561441	0.10558264	-0.016304725	0.91017253	0.03692006	0.18068033	0.50038207	0.23607322	-0.039612231	0.77338197	0.061419583	0.19809302	0.52164946	0.23895734	0.042462866	0.79733004	0.079978269	0.11110958	0.45077423	0.28896021	0.013331721	0.72047541	0.037905152	0.13646438	0.83643325	0.39842768	-0.06793909	0.8696766	0.43832739	0.22680782	0.83853206	0.38448373	0.055773681	0.83525394	0.42842102	0.10417159	0.7123656	0.77558808	-0.059475747	0.75418119	0.79932622	0.2810323	0.7934672	0.83064906	-0.028790825	0.83217865	0.8514141	0.21434952	0.62710056	0.91117769	0.12350507	0.73026172	1.3282425	-0.070712685	0.7540388	1.3024492	0.28992767	0.6642703	1.3500686	0.11507837	0.70895778	1.0064368	-0.13644663	0.70384512	0.98961119	0.3599705	0.89282355	0.84076311	-0.13592379	0.88222666	0.82387566	0.39367262
326	1.3	0.52165842	0.10634287	-0.017112386	0.91007598	0.036936886	0.18069897	0.51386471	0.23664466	-0.039630059	0.77325455	0.061448247	0.19805487	0.5352197	0.23962772	0.042416028	0.79719566	0.080018211	0.11106985	0.46319506	0.28857794	0.013480354	0.7204037	0.037918853	0.13638706	0.84829534	0.40238862	-0.067374343	0.87034114	0.43840731	0.22650058	0.84963848	0.38859006	0.056678961	0.83554341	0.42848952	0.10394543	0.71901554	0.77803047	-0.060386868	0.75933923	0.8007729	0.28102828	0.79954003	0.83314077	-0.028420131	0.83744915	0.85325615	0.21477485	0.63266371	0.9130331	0.12332383	0.73582771	1.330228	-0.070638101	0.75996388	1.3048722	0.28982114	0.66996726	1.3521142	0.11509465	0.7124508	1.0088196	-0.13636884	0.71141693	0.99170711	0.36014854	0.89455043	0.84126688	-0.13699928	0.89189436	0.82791026	0.39239898
327	1.304	0.53788632	0.10691525	-0.017914814	0.90998176	0.036951872	0.18070503	0.52739368	0.23703419	-0.039653417	0.77314376	0.061507859	0.19800607	0.5486748	0.24007531	0.042455182	0.79705749	0.080053606	0.1110184	0.47565496	0.28790171	0.013605395	0.72031712	0.037943274	0.13633588	0.86003565	0.40637422	-0.066775621	0.87098522	0.43847653	0.22616609	0.86081866	0.39273368	0.057541335	0.83573487	0.42853857	0.10368162	0.72595087	0.78057144	-0.061154494	0.76462348	0.80216564	0.28097381	0.80571429	0.83563096	-0.028038118	0.84273796	0.85503084	0.21517455	0.63828719	0.91485968	0.12311373	0.74138631	1.3321505	-0.070571599	0.76588907	1.307262	0.28970941	0.67567397	1.3540958	0.11510407	0.71594191	1.0111684	-0.13629168	0.71891592	0.99377015	0.36030637	0.89624017	0.84173101	-0.13809124	0.90149496	0.83193404	0.39108787
328	1.308	0.55419466	0.10728695	-0.018660253	0.90989321	0.036964933	0.18069669	0.54095856	0.2372279	-0.039679946	0.77304576	0.061595996	0.19794095	0.56193471	0.24029119	0.042588735	0.79691314	0.0800862	0.11096296	0.4881806	0.28692951	0.013695969	0.72020024	0.037978507	0.1363247	0.87165687	0.41037288	-0.066142374	0.87161201	0.43853552	0.22580627	0.87205821	0.39688599	0.058368049	0.83553875	0.42860844	0.10334958	0.73309645	0.7831896	-0.06162409	0.77010791	0.80352414	0.28077605	0.81194577	0.83808734	-0.027650327	0.84803652	0.85672538	0.21554992	0.64396096	0.91663696	0.12288132	0.74694102	1.3340033	-0.070527098	0.77181705	1.3096098	0.28959206	0.68141	1.3560045	0.11510235	0.71943235	1.0134744	-0.13621532	0.72633171	0.99578622	0.36043969	0.89791992	0.84216223	-0.1391952	0.91102733	0.83593319	0.38974711
329	1.312	0.57045001	0.10745103	-0.019267384	0.9098125	0.036976753	0.18067345	0.55456095	0.23718413	-0.039692195	0.77298115	0.061707715	0.19785395	0.57514171	0.24027242	0.042753606	0.79676347	0.080119928	0.11090945	0.50078082	0.28566754	0.013737952	0.72004597	0.038017886	0.1363568	0.88315409	0.41437335	-0.065483771	0.87221892	0.43859322	0.2254176	0.88329723	0.40104305	0.05917245	0.83482319	0.42877127	0.10294106	0.74028036	0.78581327	-0.061903492	0.77570508	0.8048227	0.2803843	0.81819476	0.84048515	-0.027267592	0.85333985	0.85833548	0.21590519	0.64962887	0.91836546	0.12260876	0.75251784	1.3357872	-0.070525455	0.77775044	1.3119111	0.28947154	0.68715983	1.3578565	0.11509307	0.72291943	1.0157314	-0.13613286	0.73367182	0.99774851	0.36055222	0.89959756	0.84257294	-0.14030194	0.92049865	0.8399082	0.38838237
